<?xml version="1.0" encoding="UTF-8"?>
<!-- Generator: Adobe Illustrator 25.3.1, SVG Export Plug-In . SVG Version: 6.00 Build 0)  -->
<svg preserveAspectRatio="xMidYMid slice" width="960px" height="480px" xmlns="http://www.w3.org/2000/svg" xmlns:xlink="http://www.w3.org/1999/xlink" version="1.1" id="_x32_30c2fc7-805a-476f-9df7-a679667582d1" x="0px" y="0px" viewBox="0 0 960 480" style="enable-background:new 0 0 960 480;" xml:space="preserve">
<style type="text/css">
	.st0{fill:#E2DDE5;}
	.st1{fill:none;stroke:#2D8C8C;stroke-width:18;stroke-linecap:round;stroke-linejoin:round;}
	.st2{fill:#FFFFFF;stroke:#2D8C8C;stroke-width:18;stroke-linecap:round;stroke-linejoin:round;}
	.st3{fill:none;stroke:#2D8C8C;stroke-width:14;stroke-linecap:round;}
	.st4{fill:none;stroke:#2D8C8C;stroke-width:14;stroke-linecap:round;stroke-linejoin:round;}
</style>
<path class="st0" d="M678.5,345l19.7,54.5l-60.1-24.1c-21,9.9-44,14.9-67.2,14.8c-71.6,0-129.7-45.9-129.7-102.4  s58-102.4,129.7-102.4s129.7,45.8,129.7,102.4C700.6,309,692.4,328.6,678.5,345z"></path>
<path class="st1" d="M446.4,305.6c9.9,49.3,62.6,87,126.2,87c22.2,0.1,44.2-4.7,64.3-14.1l61.2,21l-19.5-52.7  c13.7-16.5,21.8-36.5,21.8-57.9c0-57.3-57.2-103.8-127.8-103.8c-8.8,0-17.5,0.4-25.8,2.1"></path>
<path class="st2" d="M512.6,163c1.8,7,2.7,14.1,2.5,21.3c0,57.3-57.2,103.7-127.9,103.7c-22.2,0.1-44.2-4.7-64.3-14.1l-61.2,21  l19.5-52.7c-13.7-16.5-21.8-36.5-21.8-57.9c0-57.3,57.2-103.8,127.9-103.8c27.8,0,53.4,7.2,74.4,19.4"></path>
<path class="st3" d="M387.7,203.1v-16.4c0-1.4,1.1-2.5,2.5-2.6c13.9-1.4,24.1-13.7,22.7-27.6c-1.4-13.9-13.7-24.1-27.6-22.7  c-7,0.7-13.4,4.3-17.7,9.9"></path>
<line class="st3" x1="387.7" y1="235.7" x2="387.7" y2="227.5"></line>
<line class="st4" x1="524" y1="296" x2="641.2" y2="296"></line>
<line class="st4" x1="524.6" y1="258" x2="641.7" y2="258"></line>
<line class="st4" x1="524" y1="329.5" x2="587.3" y2="329.5"></line>
</svg>
